PathFileType	4	(X/Y/Z)	C:/Users/beibeiliu/ov580/test_trc\sequence.36_training_dense_right.trc
DataRate	CameraRate	NumFrames	NumMarkers	Units	OrigDataRate	OrigDataStartFrame	OrigNumFrames
120	120	14	19	mm	120	224	255
Frame#	Time	ThumbCMC			ThumbMCP			ThumbIP			ThumbTip			IndexMCP			IndexPIP			IndexTip			MiddleMCP			MiddlePIP			MiddleTip			RingMCP			RingPIP			RingTip			PinkyMCP			PinkyPIP			PinkyTip			BackHand1			BackHand2			BackHand3	
		X0	Y0	Z0	X1	Y1	Z1	X2	Y2	Z2	X3	Y3	Z3	X4	Y4	Z4	X5	Y5	Z5	X6	Y6	Z6	X7	Y7	Z7	X8	Y8	Z8	X9	Y9	Z9	X10	Y10	Z10	X11	Y11	Z11	X12	Y12	Z12	X13	Y13	Z13	X14	Y14	Z14	X15	Y15	Z15	X16	Y16	Z16	X17	Y17	Z17	X18	Y18	Z18	
223	1.85833	132.225	-6.71176	46.368	114.842	-9.44145	23.887	107.49	-11.6972	7.72662	94.2092	-12.126	-14.611	136.643	-2.65722	-21.1549	132.465	-6.36086	-42.6589	133.295	-13.6095	-66.3751	159.645	-5.77035	-28.7802	161.773	-10.3518	-52.0358	163.059	-12.9154	-71.8303	182.575	-11.0624	-21.2265	182.759	-13.0244	-40.6996	187.181	-12.928	-61.2142	196.485	-18.2926	0.574884	205.38	-17.9583	-19.3224	217.324	-14.4133	-31.8376	178.245	2.04811	25.7107	178.215	6.80846	48.5116	153.752	10.9961	36.4134	
224	1.86667	131.14	-5.25817	49.8068	118.774	-10.0805	26.3156	109.12	-11.653	8.22861	96.2233	-13.4329	-8.2915	139.547	-3.73412	-20.0853	136.37	-8.89943	-40.7696	133.545	-13.8688	-64.7623	161.076	-4.86068	-25.1564	165.504	-10.4342	-49.6244	164.746	-12.35	-71.3013	184.237	-10.9579	-13.039	187.223	-12.0362	-37.6917	187.466	-12.4306	-58.6958	200.263	-16.6367	0.113036	206.24	-16.2347	-15.8829	216.406	-11.9635	-26.5147	181.956	0.402654	25.08	180.436	3.81113	50.9667	157.165	10.3551	38.1225	
225	1.875	132.827	-5.7616	50.856	118.097	-11.526	32.203	109.463	-11.4585	10.0021	97.9958	-13.5784	-5.41404	143.594	-4.0851	-17.4208	135.513	-9.19969	-39.5562	138.525	-15.1073	-60.0994	164.174	-6.83074	-23.4424	162.683	-10.2727	-46.1382	166.674	-12.7147	-67.3275	187.065	-11.2666	-15.3221	185.633	-13.176	-33.6674	194.469	-13.5067	-52.5309	200.805	-15.9443	0.217818	212.373	-18.3489	-9.76361	221.356	-10.3837	-26.0377	179.897	-0.92387	27.1629	184.292	3.51339	53.5286	157.173	10.2648	41.6036	
226	1.88333	137.083	-8.31693	56.7753	118.228	-11.3514	31.4041	109.686	-12.8024	14.5906	97.1263	-12.8855	-2.83709	142.144	-5.33113	-11.6168	142.15	-11.1061	-35.8503	141.278	-15.9143	-55.7542	169.139	-9.0568	-21.9364	165.266	-11.5601	-43.7455	171.088	-14.9856	-65.865	187.225	-12.7273	-13.1045	190.092	-15.1319	-29.1378	193.468	-15.5539	-49.105	202.655	-18.6899	7.8711	210.673	-19.0705	-8.12846	220.877	-12.0842	-19.0569	186.125	-0.379194	29.8151	182.063	3.27896	58.4245	158.099	6.99173	42.8146	
227	1.89167	138.496	-9.27815	58.6544	118.635	-13.25	36.5439	112.718	-13.9694	14.5488	102.534	-15.0811	1.7399	147.002	-7.71628	-14.0048	142.551	-13.256	-36.7321	141.555	-18.5396	-55.6209	171.053	-10.2596	-18.7271	168.232	-13.509	-40.0392	173.57	-16.7347	-62.2159	188.677	-14.1242	-9.81337	190.84	-15.3891	-28.3584	198.911	-16.454	-49.8338	204.982	-20.0431	8.35414	214.736	-20.2636	-7.07695	226.097	-15.6922	-17.1672	185.768	-2.58211	33.5138	183.566	2.99247	61.471	162.467	6.39425	47.4402	
228	1.9	134.197	-8.89717	56.1784	119.027	-13.4924	39.7309	113.708	-14.3363	16.4257	100.732	-15.2951	1.23599	148.005	-9.98578	-9.58816	144.1	-13.7225	-30.2298	139.063	-19.2288	-56.1191	172.406	-12.168	-13.1254	170.912	-15.7913	-36.4699	172.276	-17.3592	-61.5181	187.718	-15.5632	-3.87836	195.837	-17.71	-27.6562	199.043	-17.5944	-48.7795	208.331	-22.8679	13.7712	213.993	-22.645	-0.367454	224.011	-15.0776	-16.4551	184.978	-2.83908	37.9063	183.194	2.09718	61.814	158.2	5.92338	44.6558	
229	1.90833	136.115	-11.6826	60.9118	121.89	-16.6197	43.256	111.84	-15.838	20.9205	101.277	-18.024	7.2605	147.662	-11.6487	-8.29344	144.708	-16.4613	-28.7849	143.541	-22.6721	-55.3035	167.932	-14.2248	-11.3988	172.233	-18.6727	-38.1036	173.413	-21.867	-61.0517	188.98	-17.5318	-6.48796	195.081	-20.3133	-26.2869	200.163	-21.553	-42.0012	210.192	-24.9318	11.4962	214.916	-25.106	-4.65315	227.094	-19.8421	-16.043	188.139	-7.25349	35.59	184.385	-0.243038	65.3478	159.621	3.71147	47.9203	
230	1.91667	142.054	-14.2806	60.2727	124.534	-18.642	41.1223	113.932	-19.3591	23.2241	103.624	-19.3824	4.34084	147.282	-13.7483	-5.86521	146.625	-19.9392	-25.6273	141.4	-24.9501	-48.5681	172.951	-17.2532	-9.46955	170.963	-20.9612	-35.2402	173.034	-24.1191	-55.1862	188.53	-21.4126	-1.77418	196.571	-24.5689	-24.4923	199.741	-24.8897	-44.7332	209.402	-27.9457	12.4457	218.554	-29.0694	-0.833471	225.973	-25.5965	-11.04	190.443	-9.63708	41.7903	189.887	-3.13774	67.2531	161.1	-0.43938	51.1927	
231	1.925	139.678	-16.94	63.3042	123.19	-20.8837	42.5404	112.292	-21.553	25.4461	104.899	-22.961	7.06641	146.95	-17.4146	-4.74329	143.954	-23.6432	-29.2731	144.895	-29.0052	-50.2764	175.512	-22.1522	-9.4001	174.111	-25.6275	-34.5424	178.643	-28.2583	-54.0634	190.735	-25.5674	-0.981869	196.293	-27.9606	-20.015	204.068	-29.7828	-39.0477	212.852	-31.3407	17.8431	221.293	-32.9196	0.850448	226.77	-26.1293	-11.3327	190.139	-12.294	41.5895	190.838	-5.55002	64.3861	166.346	-3.57991	49.7346	
232	1.93333	145.681	-21.5637	65.0485	129.032	-27.4398	44.4333	116.284	-26.2829	21.9882	103.748	-28.0705	7.74369	151.988	-22.3695	-7.68349	149.17	-29.1597	-28.3747	147.465	-33.5701	-48.3754	177.743	-26.4612	-12.4778	177.26	-29.5312	-31.4215	182.27	-33.1604	-59.4032	197.984	-29.5908	-2.08365	199.342	-31.9616	-24.2614	204.219	-32.6141	-42.3158	213.138	-34.0228	15.1021	221.769	-35.1907	-0.439436	227.925	-32.0654	-10.2464	194.657	-16.8288	38.548	194.554	-9.69652	68.5682	164.27	-6.38607	51.9784	
233	1.94167	148.574	-25.1477	62.9358	130.342	-30.2163	42.6872	119.783	-30.762	20.1771	106.327	-32.814	10.1559	155.38	-27.1221	-5.09272	152.623	-33.1308	-30.716	151.331	-39.408	-47.5455	177.665	-28.725	-11.1703	179.338	-34.4449	-32.9147	183.157	-38.0828	-59.6591	199.979	-33.9837	-1.59226	205.896	-37.2766	-20.5303	211.252	-37.5947	-42.4798	216.575	-40.2213	17.553	227.897	-40.6213	-0.594478	235.935	-36.8574	-9.5039	198.016	-19.841	42.2159	195.806	-12.5833	62.9626	172.535	-11.0816	50.1152	
234	1.95	152.618	-29.9921	61.4716	136.931	-34.9732	38.1771	123.746	-35.5427	18.2706	113.917	-36.7628	4.58603	163.382	-31.4163	-11.0933	160.134	-37.6179	-31.5868	153.134	-44.4506	-52.656	185.991	-34.3552	-10.829	185.134	-38.9032	-32.6223	189.494	-44.3643	-60.1626	203.963	-38.5219	-2.32898	210.364	-41.7834	-20.8336	213.95	-42.2137	-45.3051	224.037	-45.5777	16.0502	227.853	-45.8818	0.452046	237.778	-41.6958	-11.9596	202.099	-24.1301	38.5065	200.179	-17.827	62.302	177.047	-16.4044	47.2263	
235	1.95833	155.582	-32.4705	55.7029	139.109	-37.8978	38.7106	126.411	-37.8242	16.3715	114.366	-39.1674	4.86021	163.895	-35.4158	-10.2989	160.637	-40.8669	-33.6071	163.307	-48.3904	-51.2169	189.292	-38.0544	-13.3946	191.147	-43.8487	-37.5662	195.048	-48.2626	-57.8483	209.034	-43.5452	-0.884213	215.883	-46.7614	-20.9092	219.723	-48.4051	-41.802	223.134	-48.0022	14.5805	237.472	-50.1582	-0.982889	244.364	-47.0801	-11.2249	202.142	-27.2636	38.3876	202.913	-21.6277	61.3606	179.709	-18.4316	44.6632	
236	1.96667	157.539	-33.9308	55.5506	141.691	-39.5605	39.2869	132.85	-39.8578	14.7578	120.808	-40.2384	-0.923732	170.059	-37.8864	-10.9679	163.495	-43.9786	-32.695	161.259	-50.7229	-56.0017	192.971	-41.3325	-13.8861	192.872	-46.279	-35.1591	200.923	-52.0045	-62.3215	213.659	-46.4339	-4.77246	219.271	-49.2548	-21.9295	221.394	-51.5707	-41.8248	227.721	-49.6604	10.5191	235.637	-52.4036	-2.5786	247.6	-47.3643	-17.1193	209.973	-32.8029	37.0626	205.177	-25.3165	63.9841	182.881	-22.4007	43.3105	
